<svg id="visual" viewBox="0 0 960 540" width="960" height="540" xmlns="http://www.w3.org/2000/svg" xmlns:xlink="http://www.w3.org/1999/xlink" version="1.1"><rect x="0" y="0" width="960" height="540" fill="#FA7268"></rect><g transform="translate(470.1589212602123 302.45099190496154)"><path d="M160.3 -181.1C220.4 -140.7 290.4 -102.1 313.7 -44.3C337 13.5 313.6 90.5 265 132.8C216.5 175.1 142.9 182.7 81 191.9C19.2 201.1 -31 211.9 -101 213.9C-171 216 -260.8 209.2 -290.7 164.5C-320.5 119.7 -290.2 36.9 -266.8 -38.6C-243.4 -114.1 -226.8 -182.3 -183.5 -225.6C-140.1 -269 -70.1 -287.5 -10 -275.6C50.1 -263.8 100.3 -221.5 160.3 -181.1" fill="#db544b"></path></g></svg>