<?xml version="1.0" encoding="UTF-8" standalone="no"?>
<svg
   id="visual"
   viewBox="0 0 960 540"
   width="960"
   height="540"
   version="1.1"
   sodipodi:docname="blob-lander-animated.svg"
   inkscape:version="1.2 (dc2aedaf03, 2022-05-15)"
   xmlns:inkscape="http://www.inkscape.org/namespaces/inkscape"
   xmlns:sodipodi="http://sodipodi.sourceforge.net/DTD/sodipodi-0.dtd"
   xmlns="http://www.w3.org/2000/svg"
   xmlns:svg="http://www.w3.org/2000/svg">
  <defs
     id="defs11" />
  <sodipodi:namedview
     id="namedview9"
     pagecolor="#505050"
     bordercolor="#ffffff"
     borderopacity="1"
     inkscape:pageshadow="0"
     inkscape:pageopacity="0"
     inkscape:pagecheckerboard="1"
     showgrid="false"
     inkscape:zoom="0.97423603"
     inkscape:cx="474.73096"
     inkscape:cy="348.47818"
     inkscape:window-width="1920"
     inkscape:window-height="991"
     inkscape:window-x="-9"
     inkscape:window-y="-9"
     inkscape:window-maximized="1"
     inkscape:showpageshadow="0"
     inkscape:deskcolor="#505050"
     inkscape:current-layer="visual" />
  <rect
     x="0"
     y="0"
     width="960"
     height="540"
     fill="#FA7268"
     id="rect2" />

  <!-- Input Shapes -->
  <!--
  <path
     d="m 621.56503,139.40152 c 50.10485,30.88998 108.55794,56.86513 139.71983,105.7668 36.77512,66.819 -8.09457,154.81337 -84.55354,181.02587 -62.75494,22.48904 -131.44567,24.01493 -197.2229,35.3211 -74.23308,9.45129 -151.56339,15.68503 -225.14271,-0.86118 -32.7596,-6.83376 -66.53262,-27.76846 -68.10389,-60.37186 -3.58088,-55.23175 23.3518,-106.86387 39.49933,-159.06168 19.69818,-55.69572 36.18379,-119.2342 93.16933,-154.622699 60.63812,-37.887826 145.53816,-38.652094 207.94618,-3.497933 33.02651,16.744637 63.16473,37.490622 94.68837,56.301582 z"
     fill="#db544b"
     id="path1"
     sodipodi:nodetypes="cssssssssc" />
  <path
     d="m 685.20464,146.58664 c 50.10485,30.88998 55.0479,107.42611 51.44553,165.30063 -5.30914,85.29502 -45.90012,90.65723 -122.53201,116.35981 -97.65408,32.75349 -93.95308,4.20124 -166.42954,1.44841 -29.23428,-1.11039 -83.818,38.26683 -191.27002,16.58839 -32.80383,-6.61817 -43.95082,-30.8478 -39.36342,-90.13878 4.26955,-55.18279 7.95512,-57.5945 41.55222,-137.50633 C 281.50351,164.17961 310.65255,97.339272 374.35853,76.333418 501.7156,34.339811 492.795,98.705943 561.7758,117.99908 c 52.52897,14.69175 58.0325,-6.64652 123.42884,28.58756 z"
     fill="#db544b"
     id="path2"
     sodipodi:nodetypes="cssssssssc"
     style="fill:#954bdb;fill-opacity:1" />
  <path
     d="m 700.60132,250.25762 c 48.05196,63.73623 -10.6446,59.18318 -59.41056,107.81969 -60.50967,60.34904 -61.76335,57.14951 -89.68576,74.27555 -37.06776,22.73528 -115.50844,-11.19544 -187.9849,-13.94827 -29.23428,-1.11039 -63.00176,6.87758 -104.02217,-49.61733 -17.90937,-24.6655 12.16772,-64.18709 26.32909,-87.57267 35.37551,-58.41786 26.43113,-86.33497 32.31421,-112.87164 12.78657,-57.67613 76.67984,-59.71278 140.38582,-80.718634 127.35707,-41.993607 124.74004,24.664604 177.15281,73.485464 27.89428,25.98265 29.29203,25.17329 64.92146,89.14784 z"
     fill="#db544b"
     id="path3"
     sodipodi:nodetypes="cssssssssc"
     style="fill:#4bdbd9;fill-opacity:1" />
  <path
     d="m 753.52109,256.67054 c 48.05196,63.73623 -20.25253,139.48978 -90.79268,164.90048 -80.40242,28.96339 -100.17586,30.55601 -200.57207,38.92104 -105.79546,8.8149 -164.34961,28.06185 -225.24382,-9.00726 -36.66078,-22.31711 -43.68534,-33.61437 -48.95627,-67.40921 -4.69739,-30.11756 62.15405,-193.41085 76.31542,-216.79643 35.37551,-58.41786 54.42137,-80.111304 81.18863,-84.835612 88.27044,-15.579356 134.835,-0.89591 207.25066,34.711142 120.34097,59.17211 41.40934,23.31615 103.9834,46.00798 35.83706,12.99593 51.03601,36.79138 96.82673,93.50787 z"
     fill="#db544b"
     id="path4"
     sodipodi:nodetypes="cssssssssc"
     style="fill:#9bdb4b;fill-opacity:1" />
-->

  <!-- ANIMATION V1 -->
  <!--
   <path
      fill="#db544b"
      id="path100"
      sodipodi:nodetypes="cssssssssc">

      <animate
         dur="10s"
         repeatCount="indefinite"
         attributeName="d"
         values="m 621.56503,139.40152 c 50.10485,30.88998 108.55794,56.86513 139.71983,105.7668 36.77512,66.819 -8.09457,154.81337 -84.55354,181.02587 -62.75494,22.48904 -131.44567,24.01493 -197.2229,35.3211 -74.23308,9.45129 -151.56339,15.68503 -225.14271,-0.86118 -32.7596,-6.83376 -66.53262,-27.76846 -68.10389,-60.37186 -3.58088,-55.23175 23.3518,-106.86387 39.49933,-159.06168 19.69818,-55.69572 36.18379,-119.2342 93.16933,-154.622699 60.63812,-37.887826 145.53816,-38.652094 207.94618,-3.497933 33.02651,16.744637 63.16473,37.490622 94.68837,56.301582 z;m 606.1341,232.71396 c 53.25271,36.8525 95.32161,43.59616 128.44126,101.93704 39.08553,79.71669 -18.31314,148.69021 -100.66534,176.13665 -88.2969,29.42769 -110.91979,-24.29287 -180.82951,-10.80434 -78.89681,11.27562 -107.81148,37.8587 -185.12455,14.11318 -54.45452,-16.72486 -81.14731,-64.59814 -82.8173,-103.49479 -3.80585,-65.89283 71.85194,-90.23182 89.01395,-152.50507 20.93571,-66.44635 -7.80458,-124.0908 52.76109,-166.310143 64.44774,-45.2011 142.34025,-48.48019 203.26817,2.75412 50.52953,42.490283 42.44811,115.731423 75.95223,138.173353 z;m 621.56503,139.40152 c 50.10485,30.88998 108.55794,56.86513 139.71983,105.7668 36.77512,66.819 -8.09457,154.81337 -84.55354,181.02587 -62.75494,22.48904 -131.44567,24.01493 -197.2229,35.3211 -74.23308,9.45129 -151.56339,15.68503 -225.14271,-0.86118 -32.7596,-6.83376 -66.53262,-27.76846 -68.10389,-60.37186 -3.58088,-55.23175 23.3518,-106.86387 39.49933,-159.06168 19.69818,-55.69572 36.18379,-119.2342 93.16933,-154.622699 60.63812,-37.887826 145.53816,-38.652094 207.94618,-3.497933 33.02651,16.744637 63.16473,37.490622 94.68837,56.301582 z"
      />

   </path>
-->
  <!-- ANIMATION V2 -->

   <path
      fill="db544b"
      style="fill:#db544b;fill-opacity:1"
      id="pathanimate"
      sodipodi:nodetypes="cssssssssc">

      <animate
         dur="20s"
         repeatCount="indefinite"
         attributeName="d"
         values="m 621.56503,139.40152 c 50.10485,30.88998 108.55794,56.86513 139.71983,105.7668 36.77512,66.819 -8.09457,154.81337 -84.55354,181.02587 -62.75494,22.48904 -131.44567,24.01493 -197.2229,35.3211 -74.23308,9.45129 -151.56339,15.68503 -225.14271,-0.86118 -32.7596,-6.83376 -66.53262,-27.76846 -68.10389,-60.37186 -3.58088,-55.23175 23.3518,-106.86387 39.49933,-159.06168 19.69818,-55.69572 36.18379,-119.2342 93.16933,-154.622699 60.63812,-37.887826 145.53816,-38.652094 207.94618,-3.497933 33.02651,16.744637 63.16473,37.490622 94.68837,56.301582 z;m 685.20464,146.58664 c 50.10485,30.88998 55.0479,107.42611 51.44553,165.30063 -5.30914,85.29502 -45.90012,90.65723 -122.53201,116.35981 -97.65408,32.75349 -93.95308,4.20124 -166.42954,1.44841 -29.23428,-1.11039 -83.818,38.26683 -191.27002,16.58839 -32.80383,-6.61817 -43.95082,-30.8478 -39.36342,-90.13878 4.26955,-55.18279 7.95512,-57.5945 41.55222,-137.50633 C 281.50351,164.17961 310.65255,97.339272 374.35853,76.333418 501.7156,34.339811 492.795,98.705943 561.7758,117.99908 c 52.52897,14.69175 58.0325,-6.64652 123.42884,28.58756 z;m 700.60132,250.25762 c 48.05196,63.73623 -10.6446,59.18318 -59.41056,107.81969 -60.50967,60.34904 -61.76335,57.14951 -89.68576,74.27555 -37.06776,22.73528 -115.50844,-11.19544 -187.9849,-13.94827 -29.23428,-1.11039 -63.00176,6.87758 -104.02217,-49.61733 -17.90937,-24.6655 12.16772,-64.18709 26.32909,-87.57267 35.37551,-58.41786 26.43113,-86.33497 32.31421,-112.87164 12.78657,-57.67613 76.67984,-59.71278 140.38582,-80.718634 127.35707,-41.993607 124.74004,24.664604 177.15281,73.485464 27.89428,25.98265 29.29203,25.17329 64.92146,89.14784 z;m 753.52109,256.67054 c 48.05196,63.73623 -20.25253,139.48978 -90.79268,164.90048 -80.40242,28.96339 -100.17586,30.55601 -200.57207,38.92104 -105.79546,8.8149 -164.34961,28.06185 -225.24382,-9.00726 -36.66078,-22.31711 -43.68534,-33.61437 -48.95627,-67.40921 -4.69739,-30.11756 62.15405,-193.41085 76.31542,-216.79643 35.37551,-58.41786 54.42137,-80.111304 81.18863,-84.835612 88.27044,-15.579356 134.835,-0.89591 207.25066,34.711142 120.34097,59.17211 41.40934,23.31615 103.9834,46.00798 35.83706,12.99593 51.03601,36.79138 96.82673,93.50787 z;m 621.56503,139.40152 c 50.10485,30.88998 108.55794,56.86513 139.71983,105.7668 36.77512,66.819 -8.09457,154.81337 -84.55354,181.02587 -62.75494,22.48904 -131.44567,24.01493 -197.2229,35.3211 -74.23308,9.45129 -151.56339,15.68503 -225.14271,-0.86118 -32.7596,-6.83376 -66.53262,-27.76846 -68.10389,-60.37186 -3.58088,-55.23175 23.3518,-106.86387 39.49933,-159.06168 19.69818,-55.69572 36.18379,-119.2342 93.16933,-154.622699 60.63812,-37.887826 145.53816,-38.652094 207.94618,-3.497933 33.02651,16.744637 63.16473,37.490622 94.68837,56.301582 z"
      />
   </path>

</svg>
