<?xml version="1.0" encoding="UTF-8" standalone="no"?>
<svg
   id="visual"
   viewBox="0 0 960 540"
   width="960"
   height="540"
   version="1.1"
   sodipodi:docname="blob-lander.svg"
   inkscape:version="1.1.1 (3bf5ae0d25, 2021-09-20)"
   xmlns:inkscape="http://www.inkscape.org/namespaces/inkscape"
   xmlns:sodipodi="http://sodipodi.sourceforge.net/DTD/sodipodi-0.dtd"
   xmlns="http://www.w3.org/2000/svg"
   xmlns:svg="http://www.w3.org/2000/svg">
  <defs
     id="defs11" />
  <sodipodi:namedview
     id="namedview9"
     pagecolor="#505050"
     bordercolor="#ffffff"
     borderopacity="1"
     inkscape:pageshadow="0"
     inkscape:pageopacity="0"
     inkscape:pagecheckerboard="1"
     showgrid="false"
     inkscape:zoom="0.68888889"
     inkscape:cx="469.59677"
     inkscape:cy="405.72581"
     inkscape:window-width="1920"
     inkscape:window-height="991"
     inkscape:window-x="-9"
     inkscape:window-y="-9"
     inkscape:window-maximized="1"
     inkscape:current-layer="visual" />
  <rect
     x="0"
     y="0"
     width="960"
     height="540"
     fill="#FA7268"
     id="rect2" />
  <g
     transform="matrix(0.94088825,0,0,0.83820585,470.74064,291.2006)"
     id="g6">
    <path
       d="m 160.3,-181.1 c 60.1,40.4 130.1,79 153.4,136.8 23.3,57.8 -0.1,134.8 -48.7,177.1 -48.5,42.3 -122.1,49.9 -184,59.1 -61.8,9.2 -112,20 -182,22 -70,2.1 -159.8,-4.7 -189.7,-49.4 -29.8,-44.8 0.5,-127.6 23.9,-203.1 23.4,-75.5 40,-143.7 83.3,-187 43.4,-43.4 113.4,-61.9 173.5,-50 60.1,11.8 110.3,54.1 170.3,94.5"
       fill="#db544b"
       id="path4" />
  </g>
</svg>
