<?xml version="1.0" encoding="UTF-8" standalone="no"?>
<svg
   id="visual"
   viewBox="0 0 960 540"
   width="960"
   height="540"
   version="1.1"
   sodipodi:docname="blob-lander.svg"
   inkscape:version="1.2 (dc2aedaf03, 2022-05-15)"
   xmlns:inkscape="http://www.inkscape.org/namespaces/inkscape"
   xmlns:sodipodi="http://sodipodi.sourceforge.net/DTD/sodipodi-0.dtd"
   xmlns="http://www.w3.org/2000/svg"
   xmlns:svg="http://www.w3.org/2000/svg">
  <defs
     id="defs11" />
  <sodipodi:namedview
     id="namedview9"
     pagecolor="#505050"
     bordercolor="#ffffff"
     borderopacity="1"
     inkscape:pageshadow="0"
     inkscape:pageopacity="0"
     inkscape:pagecheckerboard="1"
     showgrid="false"
     inkscape:zoom="0.48711801"
     inkscape:cx="542.98958"
     inkscape:cy="641.52833"
     inkscape:window-width="1920"
     inkscape:window-height="991"
     inkscape:window-x="-9"
     inkscape:window-y="-9"
     inkscape:window-maximized="1"
     inkscape:current-layer="g403"
     inkscape:showpageshadow="0"
     inkscape:deskcolor="#505050" />
  <rect
     x="0"
     y="0"
     width="960"
     height="540"
     fill="#FA7268"
     id="rect2" />
  <g
     transform="matrix(0.94088825,0,0,0.83820585,470.74064,291.2006)"
     id="g6">
    <path
       d="m 160.3,-181.1 c 53.25271,36.8525 115.37815,67.84149 148.4978,126.182373 39.08553,79.71669 -8.60312,184.696117 -89.86566,215.968267 -66.69755,26.82998 -139.7038,28.6504 -209.6135182,42.13893 -78.8968098,11.27562 -161.0854318,18.71263 -239.2874118,-1.02741 -34.81774,-8.15284 -70.71256,-33.12844 -72.38255,-72.02509 -3.80585,-65.892828 24.81889,-127.4912083 41.9809,-189.764463 20.93572,-66.446347 38.45705,-142.249307 99.02273,-184.468647 64.447741,-45.2011 154.6816643,-46.11289 221.010499,-4.17312 C 94.764206,-228.2924 126.79588,-203.54193 160.3,-181.1 Z"
       fill="#db544b"
       id="path4"
       sodipodi:nodetypes="cssssssssc" />
  </g>
  <g
     transform="matrix(0.94088825,0,0,0.83820585,470.74064,841.36189)"
     id="g399" />
  <g
     transform="matrix(0.94088825,0,0,0.83820585,470.74064,884.91028)"
     id="g403">
    <path
       d="m 135.61502,-110.09581 c 53.25271,36.852502 95.32161,43.596158 128.44126,101.937041 39.08553,79.71669 -18.31314,148.690209 -100.66534,176.136649 -88.296908,29.42769 -110.919799,-24.29287 -180.829517,-10.80434 -78.896805,11.27562 -107.811473,37.8587 -185.124553,14.11318 -54.45452,-16.72486 -81.1473,-64.59814 -82.81729,-103.494794 -3.80585,-65.892828 71.85193,-90.231813 89.01394,-152.505067 20.93572,-66.446349 -7.80458,-124.090799 52.7611,-166.310139 64.447739,-45.2011 142.3402425,-48.48018 203.268169,2.75412 50.529531,42.49028 42.448111,115.73142 75.952231,138.17335 z"
       fill="#db544b"
       id="path401"
       sodipodi:nodetypes="cssssssssc" />
  </g>
</svg>
