<?xml version="1.0" encoding="UTF-8" standalone="no"?>
<svg
   id="visual"
   viewBox="0 0 900 150"
   width="900"
   height="150"
   version="1.1"
   sodipodi:docname="H--A break - Copy.svg"
   inkscape:version="1.1.1 (3bf5ae0d25, 2021-09-20)"
   xmlns:inkscape="http://www.inkscape.org/namespaces/inkscape"
   xmlns:sodipodi="http://sodipodi.sourceforge.net/DTD/sodipodi-0.dtd"
   xmlns="http://www.w3.org/2000/svg"
   xmlns:svg="http://www.w3.org/2000/svg">
  <defs
     id="defs17" />
  <sodipodi:namedview
     id="namedview15"
     pagecolor="#505050"
     bordercolor="#ffffff"
     borderopacity="1"
     inkscape:pageshadow="0"
     inkscape:pageopacity="0"
     inkscape:pagecheckerboard="1"
     showgrid="false"
     height="200px"
     inkscape:zoom="1.0669456"
     inkscape:cx="424.10786"
     inkscape:cy="212.28824"
     inkscape:window-width="1920"
     inkscape:window-height="991"
     inkscape:window-x="-9"
     inkscape:window-y="-9"
     inkscape:window-maximized="1"
     inkscape:current-layer="visual" />
  <rect
     x="0"
     y="0"
     width="900"
     height="150"
     fill="#282828"
     id="rect2"
     style="stroke-width:0.654654" />
  <path
     d="m 0,131 21.5,-5.2 C 43,120.7 86,110.3 128.8,110 c 42.9,-0.3 85.5,9.3 128.4,12.7 42.8,3.3 85.8,0.3 128.6,-5.7 42.9,-6 85.5,-15 128.4,-11.3 42.8,3.6 85.8,20 128.6,21.5 42.9,1.5 85.5,-11.9 128.4,-18.5 C 814,102 857,102 878.5,102 H 900 V 0 H 878.5 C 857,0 814,0 771.2,0 728.3,0 685.7,0 642.8,0 600,0 557,0 514.2,0 471.3,0 428.7,0 385.8,0 343,0 300,0 257.2,0 214.3,0 171.7,0 128.8,0 86,0 43,0 21.5,0 H 0 Z"
     fill="#c62368"
     id="path4" />
  <path
     d="m 0,111 21.5,-3.2 C 43,104.7 86,98.3 128.8,98 c 42.9,-0.3 85.5,5.3 128.4,2.2 C 300,97 343,85 385.8,80.5 428.7,76 471.3,79 514.2,80.8 557,82.7 600,83.3 642.8,86.2 685.7,89 728.3,94 771.2,93.7 814,93.3 857,87.7 878.5,84.8 L 900,82 V 0 H 878.5 C 857,0 814,0 771.2,0 728.3,0 685.7,0 642.8,0 600,0 557,0 514.2,0 471.3,0 428.7,0 385.8,0 343,0 300,0 257.2,0 214.3,0 171.7,0 128.8,0 86,0 43,0 21.5,0 H 0 Z"
     fill="#d53867"
     id="path6" />
  <path
     d="m 0,71 21.5,1 C 43,73 86,75 128.8,72.5 171.7,70 214.3,63 257.2,64.2 300,65.3 343,74.7 385.8,79.3 428.7,84 471.3,84 514.2,82.7 557,81.3 600,78.7 642.8,75.3 685.7,72 728.3,68 771.2,68 814,68 857,72 878.5,74 L 900,76 V 0 H 878.5 C 857,0 814,0 771.2,0 728.3,0 685.7,0 642.8,0 600,0 557,0 514.2,0 471.3,0 428.7,0 385.8,0 343,0 300,0 257.2,0 214.3,0 171.7,0 128.8,0 86,0 43,0 21.5,0 H 0 Z"
     fill="#e34c67"
     id="path8" />
  <path
     d="M 0,63 21.5,59.8 C 43,56.7 86,50.3 128.8,45.7 c 42.9,-4.7 85.5,-7.7 128.4,-4 42.8,3.6 85.8,14 128.6,19 42.9,5 85.5,4.6 128.4,-0.9 C 557,54.3 600,43.7 642.8,40.8 685.7,38 728.3,43 771.2,48.2 814,53.3 857,58.7 878.5,61.3 L 900,64 V 0 H 878.5 C 857,0 814,0 771.2,0 728.3,0 685.7,0 642.8,0 600,0 557,0 514.2,0 471.3,0 428.7,0 385.8,0 343,0 300,0 257.2,0 214.3,0 171.7,0 128.8,0 86,0 43,0 21.5,0 H 0 Z"
     fill="#ef5f67"
     id="path10" />
  <path
     d="M 0,38 21.5,34.3 C 43,30.7 86,23.3 128.8,23.8 c 42.9,0.5 85.5,8.9 128.4,9.5 42.8,0.7 85.8,-6.3 128.6,-10 42.9,-3.6 85.5,-4 128.4,-1 42.8,3 85.8,9.4 128.6,11.2 42.9,1.8 85.5,-0.8 128.4,-3.3 42.8,-2.5 85.8,-4.9 107.3,-6 L 900,23 V 0 H 878.5 C 857,0 814,0 771.2,0 728.3,0 685.7,0 642.8,0 600,0 557,0 514.2,0 471.3,0 428.7,0 385.8,0 343,0 300,0 257.2,0 214.3,0 171.7,0 128.8,0 86,0 43,0 21.5,0 H 0 Z"
     fill="#fa7268"
     id="path12" />
</svg>
