<?xml version="1.0" encoding="UTF-8" standalone="no"?>
<svg
   id="visual"
   viewBox="0 0 900 150"
   width="900"
   height="150"
   version="1.1"
   sodipodi:docname="layered-waves-haikei (1).svg"
   inkscape:version="1.1.1 (3bf5ae0d25, 2021-09-20)"
   xmlns:inkscape="http://www.inkscape.org/namespaces/inkscape"
   xmlns:sodipodi="http://sodipodi.sourceforge.net/DTD/sodipodi-0.dtd"
   xmlns="http://www.w3.org/2000/svg"
   xmlns:svg="http://www.w3.org/2000/svg">
  <defs
     id="defs17" />
  <sodipodi:namedview
     id="namedview15"
     pagecolor="#505050"
     bordercolor="#ffffff"
     borderopacity="1"
     inkscape:pageshadow="0"
     inkscape:pageopacity="0"
     inkscape:pagecheckerboard="1"
     showgrid="false"
     height="150px"
     inkscape:zoom="1.0669456"
     inkscape:cx="374.43335"
     inkscape:cy="191.66863"
     inkscape:window-width="1920"
     inkscape:window-height="991"
     inkscape:window-x="-9"
     inkscape:window-y="-9"
     inkscape:window-maximized="1"
     inkscape:current-layer="visual" />
  <rect
     x="0"
     y="0"
     width="900"
     height="150"
     fill="#141414"
     id="rect2"
     style="stroke-width:0.654654" />
  <path
     d="m 0,105 21.5,-2.2 C 43,100.7 86,96.3 128.8,93.3 c 42.9,-3 85.5,-4.6 128.4,2.4 42.8,7 85.8,22.6 128.6,25.3 42.9,2.7 85.5,-7.7 128.4,-14 C 557,100.7 600,98.3 642.8,96 685.7,93.7 728.3,91.3 771.2,91.2 814,91 857,93 878.5,94 L 900,95 V 0 H 878.5 C 857,0 814,0 771.2,0 728.3,0 685.7,0 642.8,0 600,0 557,0 514.2,0 471.3,0 428.7,0 385.8,0 343,0 300,0 257.2,0 214.3,0 171.7,0 128.8,0 86,0 43,0 21.5,0 H 0 Z"
     fill="#141414"
     id="path4" />
  <path
     d="M 0,96 21.5,93.2 C 43,90.3 86,84.7 128.8,81 c 42.9,-3.7 85.5,-5.3 128.4,-6 42.8,-0.7 85.8,-0.3 128.6,1.7 42.9,2 85.5,5.6 128.4,4.8 C 557,80.7 600,75.3 642.8,79.2 685.7,83 728.3,96 771.2,101.5 814,107 857,105 878.5,104 L 900,103 V 0 H 878.5 C 857,0 814,0 771.2,0 728.3,0 685.7,0 642.8,0 600,0 557,0 514.2,0 471.3,0 428.7,0 385.8,0 343,0 300,0 257.2,0 214.3,0 171.7,0 128.8,0 86,0 43,0 21.5,0 H 0 Z"
     fill="#171717"
     id="path6" />
  <path
     d="M 0,76 21.5,73 C 43,70 86,64 128.8,63 c 42.9,-1 85.5,3 128.4,7.2 42.8,4.1 85.8,8.5 128.6,9.3 42.9,0.8 85.5,-1.8 128.4,-3.3 42.8,-1.5 85.8,-1.9 128.6,-0.9 42.9,1 85.5,3.4 128.4,5.7 42.8,2.3 85.8,4.7 107.3,5.8 L 900,88 V 0 H 878.5 C 857,0 814,0 771.2,0 728.3,0 685.7,0 642.8,0 600,0 557,0 514.2,0 471.3,0 428.7,0 385.8,0 343,0 300,0 257.2,0 214.3,0 171.7,0 128.8,0 86,0 43,0 21.5,0 H 0 Z"
     fill="#191919"
     id="path8" />
  <path
     d="M 0,67 21.5,63.3 C 43,59.7 86,52.3 128.8,50 171.7,47.7 214.3,50.3 257.2,48.7 300,47 343,41 385.8,39 c 42.9,-2 85.5,0 128.4,2.8 42.8,2.9 85.8,6.5 128.6,6.9 C 685.7,49 728.3,46 771.2,43.8 814,41.7 857,40.3 878.5,39.7 L 900,39 V 0 H 878.5 C 857,0 814,0 771.2,0 728.3,0 685.7,0 642.8,0 600,0 557,0 514.2,0 471.3,0 428.7,0 385.8,0 343,0 300,0 257.2,0 214.3,0 171.7,0 128.8,0 86,0 43,0 21.5,0 H 0 Z"
     fill="#1b1b1b"
     id="path10" />
  <path
     d="m 0,30 21.5,2 C 43,34 86,38 128.8,36.8 171.7,35.7 214.3,29.3 257.2,27.2 300,25 343,27 385.8,26.3 c 42.9,-0.6 85.5,-4 128.4,-6.5 42.8,-2.5 85.8,-4.1 128.6,-3 42.9,1.2 85.5,5.2 128.4,8.7 42.8,3.5 85.8,6.5 107.3,8 L 900,35 V 0 H 878.5 C 857,0 814,0 771.2,0 728.3,0 685.7,0 642.8,0 600,0 557,0 514.2,0 471.3,0 428.7,0 385.8,0 343,0 300,0 257.2,0 214.3,0 171.7,0 128.8,0 86,0 43,0 21.5,0 H 0 Z"
     fill="#1e1e1e"
     id="path12" />
</svg>
