<?xml version="1.0" encoding="UTF-8" standalone="no"?>
<svg
   id="visual"
   viewBox="0 0 900 150"
   width="900"
   height="150"
   version="1.1"
   sodipodi:docname="A--P break.svg"
   inkscape:version="1.1.1 (3bf5ae0d25, 2021-09-20)"
   xmlns:inkscape="http://www.inkscape.org/namespaces/inkscape"
   xmlns:sodipodi="http://sodipodi.sourceforge.net/DTD/sodipodi-0.dtd"
   xmlns="http://www.w3.org/2000/svg"
   xmlns:svg="http://www.w3.org/2000/svg">
  <defs
     id="defs17" />
  <sodipodi:namedview
     id="namedview15"
     pagecolor="#505050"
     bordercolor="#ffffff"
     borderopacity="1"
     inkscape:pageshadow="0"
     inkscape:pageopacity="0"
     inkscape:pagecheckerboard="1"
     showgrid="false"
     height="150px"
     inkscape:zoom="1.0669456"
     inkscape:cx="441.9157"
     inkscape:cy="87.633337"
     inkscape:window-width="1920"
     inkscape:window-height="991"
     inkscape:window-x="-9"
     inkscape:window-y="-9"
     inkscape:window-maximized="1"
     inkscape:current-layer="visual" />
  <rect
     x="0"
     y="0"
     width="900"
     height="150"
     fill="#1e1e1e"
     id="rect2"
     style="stroke-width:0.654654" />
  <path
     d="m 0,118 21.5,2.5 c 21.5,2.5 64.5,7.5 107.3,3.2 42.9,-4.4 85.5,-18 128.4,-20.9 42.8,-2.8 85.8,5.2 128.6,11 42.9,5.9 85.5,9.5 128.4,9.5 42.8,0 85.8,-3.6 128.6,-9.5 42.9,-5.8 85.5,-13.8 128.4,-11.6 42.8,2.1 85.8,14.5 107.3,20.6 L 900,129 V 0 H 878.5 C 857,0 814,0 771.2,0 728.3,0 685.7,0 642.8,0 600,0 557,0 514.2,0 471.3,0 428.7,0 385.8,0 343,0 300,0 257.2,0 214.3,0 171.7,0 128.8,0 86,0 43,0 21.5,0 H 0 Z"
     fill="#1e1e1e"
     id="path4" />
  <path
     d="M 0,84 21.5,83.5 C 43,83 86,82 128.8,85.8 c 42.9,3.9 85.5,12.5 128.4,15.9 42.8,3.3 85.8,1.3 128.6,3 42.9,1.6 85.5,7 128.4,3.1 C 557,104 600,91 642.8,87.3 c 42.9,-3.6 85.5,2 128.4,5.4 C 814,96 857,97 878.5,97.5 L 900,98 V 0 H 878.5 C 857,0 814,0 771.2,0 728.3,0 685.7,0 642.8,0 600,0 557,0 514.2,0 471.3,0 428.7,0 385.8,0 343,0 300,0 257.2,0 214.3,0 171.7,0 128.8,0 86,0 43,0 21.5,0 H 0 Z"
     fill="#202020"
     id="path6" />
  <path
     d="M 0,78 21.5,77.5 C 43,77 86,76 128.8,76.2 c 42.9,0.1 85.5,1.5 128.4,4.5 42.8,3 85.8,7.6 128.6,4.1 42.9,-3.5 85.5,-15.1 128.4,-18.8 42.8,-3.7 85.8,0.7 128.6,0.7 42.9,0 85.5,-4.4 128.4,-3.2 42.8,1.2 85.8,7.8 107.3,11.2 L 900,78 V 0 H 878.5 C 857,0 814,0 771.2,0 728.3,0 685.7,0 642.8,0 600,0 557,0 514.2,0 471.3,0 428.7,0 385.8,0 343,0 300,0 257.2,0 214.3,0 171.7,0 128.8,0 86,0 43,0 21.5,0 H 0 Z"
     fill="#232323"
     id="path8" />
  <path
     d="M 0,42 21.5,41.7 C 43,41.3 86,40.7 128.8,44 c 42.9,3.3 85.5,10.7 128.4,12.7 42.8,2 85.8,-1.4 128.6,-2.7 42.9,-1.3 85.5,-0.7 128.4,-3.2 42.8,-2.5 85.8,-8.1 128.6,-7.6 42.9,0.5 85.5,7.1 128.4,11.6 42.8,4.5 85.8,6.9 107.3,8 L 900,64 V 0 H 878.5 C 857,0 814,0 771.2,0 728.3,0 685.7,0 642.8,0 600,0 557,0 514.2,0 471.3,0 428.7,0 385.8,0 343,0 300,0 257.2,0 214.3,0 171.7,0 128.8,0 86,0 43,0 21.5,0 H 0 Z"
     fill="#252525"
     id="path10" />
  <path
     d="m 0,15 21.5,0.7 c 21.5,0.6 64.5,2 107.3,5.8 42.9,3.8 85.5,10.2 128.4,10.8 C 300,33 343,28 385.8,25.5 428.7,23 471.3,23 514.2,26 557,29 600,35 642.8,35.8 685.7,36.7 728.3,32.3 771.2,31.2 814,30 857,32 878.5,33 L 900,34 V 0 H 878.5 C 857,0 814,0 771.2,0 728.3,0 685.7,0 642.8,0 600,0 557,0 514.2,0 471.3,0 428.7,0 385.8,0 343,0 300,0 257.2,0 214.3,0 171.7,0 128.8,0 86,0 43,0 21.5,0 H 0 Z"
     fill="#282828"
     id="path12" />
</svg>
