<?xml version="1.0" encoding="UTF-8" standalone="no"?>
<svg
   id="visual"
   viewBox="0 0 960 540"
   width="960"
   height="540"
   version="1.1"
   sodipodi:docname="blob-lander-animated.svg"
   inkscape:version="1.2 (dc2aedaf03, 2022-05-15)"
   xmlns:inkscape="http://www.inkscape.org/namespaces/inkscape"
   xmlns:sodipodi="http://sodipodi.sourceforge.net/DTD/sodipodi-0.dtd"
   xmlns="http://www.w3.org/2000/svg"
   xmlns:svg="http://www.w3.org/2000/svg">
  <defs
     id="defs11" />
  <sodipodi:namedview
     id="namedview9"
     pagecolor="#505050"
     bordercolor="#ffffff"
     borderopacity="1"
     inkscape:pageshadow="0"
     inkscape:pageopacity="0"
     inkscape:pagecheckerboard="1"
     showgrid="false"
     inkscape:zoom="0.97423603"
     inkscape:cx="474.73096"
     inkscape:cy="348.47818"
     inkscape:window-width="1920"
     inkscape:window-height="991"
     inkscape:window-x="-9"
     inkscape:window-y="-9"
     inkscape:window-maximized="1"
     inkscape:showpageshadow="0"
     inkscape:deskcolor="#505050"
     inkscape:current-layer="visual" />
  <rect
     x="0"
     y="0"
     width="960"
     height="540"
     fill="#FA7268"
     id="rect2" />

<!-- Input Shapes -->
<!--
  <path
     d="m 621.56503,139.40152 c 50.10485,30.88998 108.55794,56.86513 139.71983,105.7668 36.77512,66.819 -8.09457,154.81337 -84.55354,181.02587 -62.75494,22.48904 -131.44567,24.01493 -197.2229,35.3211 -74.23308,9.45129 -151.56339,15.68503 -225.14271,-0.86118 -32.7596,-6.83376 -66.53262,-27.76846 -68.10389,-60.37186 -3.58088,-55.23175 23.3518,-106.86387 39.49933,-159.06168 19.69818,-55.69572 36.18379,-119.2342 93.16933,-154.622699 60.63812,-37.887826 145.53816,-38.652094 207.94618,-3.497933 33.02651,16.744637 63.16473,37.490622 94.68837,56.301582 z"
     fill="#db544b"
     id="path1"
     sodipodi:nodetypes="cssssssssc"
   />
   <path 
      d="m 688.71035,208.69516 c 36.4865,45.81324 58.07156,118.15351 27.31762,149.64175 -30.79716,31.53248 -114.02932,22.20435 -183.52942,45.03948 -69.42208,22.8095 -125.09382,77.75721 -183.96167,82.0393 -58.78812,4.27629 -120.81323,-42.01165 -123.44796,-97.77286 -2.63862,-55.84339 54.11654,-121.02741 81.17481,-177.13226 27.05827,-56.10485 24.35193,-102.98081 45.90397,-130.018019 21.58562,-27.07936 70.33725,-35.61151 158.59248,8.13388 22.10083,10.9547 57.12523,34.458669 75.36581,44.470679 57.87402,31.76626 74.42781,40.24409 102.58436,75.59805 z"
      fill="#db544b"
      id="path2"
      sodipodi:nodetypes="cssssssssc"
   />
   <path
      d="m 690.49865,230.43773 c -1.73425,59.87302 22.4627,104.79843 12.22236,137.00599 -10.15778,32.29012 -54.67027,51.69724 -102.23834,73.82962 -47.56808,22.13236 -98.27433,46.98999 -156.9086,46.32932 -58.71685,-0.74325 -125.4443,-27.0048 -156.00017,-76.05938 -30.63847,-48.97199 -25.18796,-120.81961 -8.42351,-186.22573 16.76444,-65.4061 44.84282,-124.45328 90.42889,-146.915982 45.50349,-22.545287 108.51468,-8.588681 174.41629,-12.057187 65.90161,-3.468505 134.77622,-24.444706 155.33951,2.477504 20.64586,26.92221 -7.0196,101.742835 -8.83643,161.615845 z"
      fill="db544b"
      id="path3"
      sodipodi:nodetypes="cssssssssc"
   />
-->

<!-- ANIMATION V3 -->

   <path
      fill="db544b"
      style="fill:#db544b;fill-opacity:1"
      id="pathanimate"
      sodipodi:nodetypes="cssssssssc">

      <animate
         dur="20s"
         repeatCount="indefinite"
         attributeName="d"
         values="m 621.56503,139.40152 c 50.10485,30.88998 108.55794,56.86513 139.71983,105.7668 36.77512,66.819 -8.09457,154.81337 -84.55354,181.02587 -62.75494,22.48904 -131.44567,24.01493 -197.2229,35.3211 -74.23308,9.45129 -151.56339,15.68503 -225.14271,-0.86118 -32.7596,-6.83376 -66.53262,-27.76846 -68.10389,-60.37186 -3.58088,-55.23175 23.3518,-106.86387 39.49933,-159.06168 19.69818,-55.69572 36.18379,-119.2342 93.16933,-154.622699 60.63812,-37.887826 145.53816,-38.652094 207.94618,-3.497933 33.02651,16.744637 63.16473,37.490622 94.68837,56.301582 z;m 688.71035,208.69516 c 36.4865,45.81324 58.07156,118.15351 27.31762,149.64175 -30.79716,31.53248 -114.02932,22.20435 -183.52942,45.03948 -69.42208,22.8095 -125.09382,77.75721 -183.96167,82.0393 -58.78812,4.27629 -120.81323,-42.01165 -123.44796,-97.77286 -2.63862,-55.84339 54.11654,-121.02741 81.17481,-177.13226 27.05827,-56.10485 24.35193,-102.98081 45.90397,-130.018019 21.58562,-27.07936 70.33725,-35.61151 158.59248,8.13388 22.10083,10.9547 57.12523,34.458669 75.36581,44.470679 57.87402,31.76626 74.42781,40.24409 102.58436,75.59805 z;m 690.49865,230.43773 c -1.73425,59.87302 22.4627,104.79843 12.22236,137.00599 -10.15778,32.29012 -54.67027,51.69724 -102.23834,73.82962 -47.56808,22.13236 -98.27433,46.98999 -156.9086,46.32932 -58.71685,-0.74325 -125.4443,-27.0048 -156.00017,-76.05938 -30.63847,-48.97199 -25.18796,-120.81961 -8.42351,-186.22573 16.76444,-65.4061 44.84282,-124.45328 90.42889,-146.915982 45.50349,-22.545287 108.51468,-8.588681 174.41629,-12.057187 65.90161,-3.468505 134.77622,-24.444706 155.33951,2.477504 20.64586,26.92221 -7.0196,101.742835 -8.83643,161.615845 z;m 621.56503,139.40152 c 50.10485,30.88998 108.55794,56.86513 139.71983,105.7668 36.77512,66.819 -8.09457,154.81337 -84.55354,181.02587 -62.75494,22.48904 -131.44567,24.01493 -197.2229,35.3211 -74.23308,9.45129 -151.56339,15.68503 -225.14271,-0.86118 -32.7596,-6.83376 -66.53262,-27.76846 -68.10389,-60.37186 -3.58088,-55.23175 23.3518,-106.86387 39.49933,-159.06168 19.69818,-55.69572 36.18379,-119.2342 93.16933,-154.622699 60.63812,-37.887826 145.53816,-38.652094 207.94618,-3.497933 33.02651,16.744637 63.16473,37.490622 94.68837,56.301582 z"
      />
   </path>
</svg>
